<svg width="24" height="24" viewBox="0 0 24 24" fill="none" xmlns="http://www.w3.org/2000/svg">
<path d="M13.9091 5H5C4.44772 5 4 5.44772 4 6V14.1111C4 14.6634 4.44772 15.1111 5 15.1111H13.9091C14.4614 15.1111 14.9091 14.6634 14.9091 14.1111V6C14.9091 5.44772 14.4614 5 13.9091 5Z" stroke="#B0B0B0" stroke-width="2" stroke-linecap="round" stroke-linejoin="round"/>
<path d="M14.9092 9.88891C14.9092 9.33663 15.3569 8.88892 15.9092 8.88892H17.3843C17.6611 8.88892 17.9256 9.0037 18.1147 9.20592L19.7305 10.934C19.9037 11.1192 20.0001 11.3633 20.0001 11.6169V14.1111C20.0001 14.6634 19.5524 15.1111 19.0001 15.1111H15.9092C15.3569 15.1111 14.9092 14.6634 14.9092 14.1111V9.88891Z" stroke="#B0B0B0" stroke-width="2" stroke-linecap="round" stroke-linejoin="round"/>
<path d="M7.27277 19C8.27693 19 9.09095 18.1294 9.09095 17.0555C9.09095 15.9816 8.27693 15.1111 7.27277 15.1111C6.26862 15.1111 5.45459 15.9816 5.45459 17.0555C5.45459 18.1294 6.26862 19 7.27277 19Z" stroke="#B0B0B0" stroke-width="2" stroke-linecap="round" stroke-linejoin="round"/>
<path d="M16.7274 19C17.7315 19 18.5455 18.1294 18.5455 17.0555C18.5455 15.9816 17.7315 15.1111 16.7274 15.1111C15.7232 15.1111 14.9092 15.9816 14.9092 17.0555C14.9092 18.1294 15.7232 19 16.7274 19Z" stroke="#B0B0B0" stroke-width="2" stroke-linecap="round" stroke-linejoin="round"/>
</svg>
