<svg width="930" height="160" viewBox="0 0 930 160" fill="none" xmlns="http://www.w3.org/2000/svg">
<path d="M154.962 1.57593V4.04516L86.7098 160H68.929L0 4.04516V1.57593H43.5728L63.3527 48.1883L77.7968 90.5439L91.5796 48.1883L111.149 1.57593H154.947H154.962Z" fill="black"/>
<path d="M305.04 156.183V158.425H261.242L252.344 138.489H193.651L184.978 158.425H141.18V156.183L214.332 0H232.113L305.04 156.183ZM208.546 103.071H237.223L223.215 64.7605L208.546 103.071Z" fill="black"/>
<path d="M445.995 58.2622C445.995 92.5436 422.427 115.176 387.752 115.176H360.187V158.425H319.5V1.57593H387.752C423.103 1.57593 445.995 24.208 445.995 58.2622ZM404.646 58.2622C404.646 44.8102 396.86 37.2056 383.754 37.2056H360.187V79.7733H383.754C396.876 79.7733 404.646 71.699 404.646 58.2622Z" fill="black"/>
<path d="M566.717 121.674V158.425H467.562V1.57593H564.718V38.0993H508.024V61.3979H560.269V97.2548H508.024V121.674H566.717Z" fill="black"/>
<path d="M688.553 38.3265V63.4279H738.349V99.4968H688.553V158.425H647.866V1.57593H745.022V38.3265H688.553Z" fill="#E50303"/>
<path d="M930 1.12122V158.425H889.313V114.948L890.2 80.2123L851.076 120.326H848.19L809.277 80.2123L809.938 114.948V158.425H769.251V1.12122H785.709L849.738 69.0174L913.542 1.12122H930Z" fill="#E50303"/>
</svg>
