<?xml version="1.0" encoding="utf-8"?><svg xmlns="http://www.w3.org/2000/svg" xmlns:xlink="http://www.w3.org/1999/xlink"><symbol viewBox="0 0 24 24" id="Bag_alt" xmlns="http://www.w3.org/2000/svg"><path d="M8 12V8a4 4 0 014-4v0a4 4 0 014 4v4" stroke-width="2" stroke-linecap="round"/><path d="M3.694 12.668c.145-1.741.218-2.611.792-3.14C5.06 9 5.934 9 7.681 9h8.639c1.746 0 2.62 0 3.194.528.574.528.647 1.399.792 3.14l.514 6.166c.084 1.013.126 1.52-.17 1.843-.298.323-.806.323-1.824.323H5.174c-1.017 0-1.526 0-1.823-.323-.297-.323-.255-.83-.17-1.843l.513-6.166z" stroke-width="2"/></symbol><symbol viewBox="0 0 24 24" id="Chart" xmlns="http://www.w3.org/2000/svg"><path d="M8 10v6M12 12v4M16 8v8" stroke-width="2" stroke-linecap="round" stroke-linejoin="round"/><rect x="3" y="4" width="18" height="16" rx="2" stroke-width="2"/></symbol><symbol viewBox="0 0 10 8" id="Checkbox" xmlns="http://www.w3.org/2000/svg"><path d="M1 4l3 3 5-6" stroke-width="2" stroke-linecap="round" stroke-linejoin="round"/></symbol><symbol viewBox="0 0 10 10" id="Close" xmlns="http://www.w3.org/2000/svg"><path d="M9.666 1.273l-.94-.94L5 4.06 1.273.333l-.94.94L4.06 5 .333 8.727l.94.94L5 5.94l3.726 3.727.94-.94L5.94 5l3.726-3.727z"/></symbol><symbol viewBox="0 0 14 12" id="Email" xmlns="http://www.w3.org/2000/svg"><path d="M12.333.667H1.667C.933.667.34 1.267.34 2l-.007 8c0 .733.6 1.333 1.334 1.333h10.666c.734 0 1.334-.6 1.334-1.333V2c0-.733-.6-1.333-1.334-1.333zm0 2.666L7 6.667 1.667 3.333V2L7 5.333 12.333 2v1.333z"/></symbol><symbol viewBox="0 0 20 17" id="Green-heart" xmlns="http://www.w3.org/2000/svg"><path d="M2.45 9.908l6.953 6.531c.24.225.36.338.5.366a.5.5 0 00.193 0c.142-.028.261-.14.5-.366l6.953-6.53a5.203 5.203 0 00.549-6.983l-.31-.399C15.82-.009 11.87.416 10.487 3.314a.54.54 0 01-.974 0C8.13.416 4.18-.01 2.212 2.527l-.31.4a5.203 5.203 0 00.549 6.981z"/></symbol><symbol viewBox="0 0 22 19" id="Heart" xmlns="http://www.w3.org/2000/svg"><path d="M3.45 10.908l6.953 6.531c.24.225.36.338.5.366a.5.5 0 00.193 0c.142-.028.261-.14.5-.366l6.953-6.53a5.203 5.203 0 00.549-6.983l-.31-.399c-1.968-2.536-5.918-2.111-7.301.787a.54.54 0 01-.974 0C9.13 1.416 5.18.99 3.212 3.527l-.31.4a5.203 5.203 0 00.549 6.981z" stroke-width="2"/></symbol><symbol viewBox="0 0 12 12" id="Phone" xmlns="http://www.w3.org/2000/svg"><path d="M2.413 5.193a10.1 10.1 0 004.394 4.394L8.273 8.12c.18-.18.447-.24.68-.16.747.247 1.554.38 2.38.38.367 0 .667.3.667.667v2.326c0 .367-.3.667-.667.667C5.073 12 0 6.927 0 .667 0 .3.3 0 .667 0H3c.367 0 .667.3.667.667 0 .833.133 1.633.38 2.38a.669.669 0 01-.167.68L2.413 5.193z"/></symbol><symbol viewBox="0 0 16 16" id="Plus" xmlns="http://www.w3.org/2000/svg"><path d="M0 6h16v4H0z"/><path d="M6 16V0h4v16z"/></symbol><symbol viewBox="0 0 24 24" id="Search" xmlns="http://www.w3.org/2000/svg"><circle cx="11" cy="11" r="7" stroke-width="2"/><path d="M20 20l-3-3" stroke-width="2" stroke-linecap="round"/></symbol><symbol viewBox="0 0 24 24" id="Send-btn" xmlns="http://www.w3.org/2000/svg"><path d="M6.998 10.247l.435.76c.277.485.415.727.415.993s-.138.508-.415.992h0l-.435.761c-1.238 2.167-1.857 3.25-1.375 3.788.483.537 1.627.037 3.913-.963l6.276-2.746c1.795-.785 2.693-1.178 2.693-1.832 0-.654-.898-1.047-2.693-1.832L9.536 7.422c-2.286-1-3.43-1.5-3.913-.963-.482.537.137 1.62 1.375 3.788z" stroke-width="2"/></symbol><symbol viewBox="0 0 24 24" id="User" xmlns="http://www.w3.org/2000/svg"><path d="M19.727 20.447c-.455-1.276-1.46-2.403-2.857-3.207C15.473 16.436 13.761 16 12 16c-1.761 0-3.473.436-4.87 1.24-1.397.804-2.402 1.931-2.857 3.207" stroke-width="2" stroke-linecap="round"/><circle cx="12" cy="8" r="4" stroke-width="2" stroke-linecap="round"/></symbol><symbol viewBox="0 0 12 8" id="arrow-down" xmlns="http://www.w3.org/2000/svg"><path d="M2.12 1.29L6 5.17l3.88-3.88a.996.996 0 111.41 1.41L6.7 7.29a.996.996 0 01-1.41 0L.7 2.7a.996.996 0 010-1.41c.39-.38 1.03-.39 1.42 0z"/></symbol><symbol viewBox="0 0 16 14" id="arrow-subscribe" xmlns="http://www.w3.org/2000/svg"><path d="M2.998 5.247l.435.76c.277.485.415.727.415.993s-.138.508-.415.992h0l-.435.761c-1.238 2.167-1.857 3.25-1.375 3.788.483.537 1.627.037 3.913-.963l6.276-2.746c1.795-.785 2.693-1.178 2.693-1.832 0-.654-.898-1.047-2.693-1.832L5.536 2.422c-2.286-1-3.43-1.5-3.913-.963-.482.537.137 1.62 1.375 3.788z" stroke-width="2"/></symbol><symbol viewBox="0 0 24 24" id="burger" xmlns="http://www.w3.org/2000/svg"><path d="M5 7h14M5 12h14M5 17h14" stroke-width="2" stroke-linecap="round"/></symbol><symbol viewBox="0 0 8 12" id="left-arrow-green" xmlns="http://www.w3.org/2000/svg"><path d="M6.71 2.12L2.83 6l3.88 3.88a.996.996 0 11-1.41 1.41L.71 6.7a.996.996 0 010-1.41L5.3.7a.996.996 0 011.41 0c.38.39.39 1.03 0 1.42z"/></symbol><symbol viewBox="0 0 16 4" id="less" xmlns="http://www.w3.org/2000/svg"><path d="M0 0h16v4H0z"/></symbol><symbol viewBox="0 0 8 12" id="right-arrow" xmlns="http://www.w3.org/2000/svg"><path d="M.59 10.59L5.17 6 .59 1.41 2 0l6 6-6 6-1.41-1.41z"/></symbol><symbol viewBox="0 0 6 8" id="right-arrow-green" xmlns="http://www.w3.org/2000/svg"><path d="M1.194 6.587L3.78 4 1.194 1.413a.664.664 0 11.94-.94l3.06 3.06c.26.26.26.68 0 .94l-3.06 3.06c-.26.26-.68.26-.94 0a.678.678 0 010-.946z"/></symbol><symbol viewBox="0 0 24 24" id="rounded-arrow-right" xmlns="http://www.w3.org/2000/svg"><circle cx="12" cy="12" r="12"/><g clip-path="url(#tclip0_205_2470)"><path d="M8.59 16.59L13.17 12 8.59 7.41 10 6l6 6-6 6-1.41-1.41z"/></g><defs><clipPath id="tclip0_205_2470"><path d="M0 0h24v24H0z"/></clipPath></defs></symbol><symbol viewBox="0 0 24 24" id="Корзина-Frame_19" xmlns="http://www.w3.org/2000/svg"><path d="M13.91 5H5a1 1 0 00-1 1v8.111a1 1 0 001 1h8.91a1 1 0 001-1V6a1 1 0 00-1-1zM14.91 9.889a1 1 0 011-1h1.474a1 1 0 01.73.317l1.616 1.728a1 1 0 01.27.683v2.494a1 1 0 01-1 1h-3.09a1 1 0 01-1-1V9.89zM7.273 19c1.004 0 1.818-.87 1.818-1.945 0-1.073-.814-1.944-1.818-1.944s-1.818.87-1.818 1.944c0 1.074.814 1.945 1.818 1.945zM16.727 19c1.005 0 1.819-.87 1.819-1.945 0-1.073-.814-1.944-1.819-1.944-1.004 0-1.818.87-1.818 1.944 0 1.074.814 1.945 1.818 1.945z" stroke-width="2" stroke-linecap="round" stroke-linejoin="round"/></symbol><symbol viewBox="0 0 24 24" id="Корзина-Home" xmlns="http://www.w3.org/2000/svg"><path d="M5 12.76c0-1.358 0-2.037.274-2.634.275-.597.79-1.038 1.821-1.922l1-.857C9.96 5.75 10.89 4.95 12 4.95c1.11 0 2.041.799 3.905 2.396l1 .857c1.03.884 1.546 1.325 1.82 1.922.275.597.275 1.276.275 2.633V17c0 1.887 0 2.83-.586 3.415C17.828 21 16.886 21 15 21H9c-1.886 0-2.828 0-3.414-.586C5 19.828 5 18.886 5 17v-4.24z" stroke-width="2"/><path d="M14.5 21v-5a1 1 0 00-1-1h-3a1 1 0 00-1 1v5" stroke-width="2" stroke-linecap="round" stroke-linejoin="round"/></symbol><symbol viewBox="0 0 20 20" id="Корзина-Vector" xmlns="http://www.w3.org/2000/svg"><path d="M9.99 0C4.47 0 0 4.48 0 10s4.47 10 9.99 10C15.52 20 20 15.52 20 10S15.52 0 9.99 0zM10 18c-4.42 0-8-3.58-8-8s3.58-8 8-8 8 3.58 8 8-3.58 8-8 8zM9.78 5h-.06c-.4 0-.72.32-.72.72v4.72c0 .35.18.68.49.86l4.15 2.49c.34.2.78.1.98-.24a.71.71 0 00-.25-.99l-3.87-2.3V5.72c0-.4-.32-.72-.72-.72z"/></symbol></svg>